<svg width="29" height="29" viewBox="0 0 29 29" fill="none" xmlns="http://www.w3.org/2000/svg">
<path d="M25.0805 6.51934L22.0644 3.50605C21.8516 3.29236 21.5987 3.12281 21.3202 3.00714C21.0417 2.89147 20.7432 2.83196 20.4416 2.83203C19.8271 2.83203 19.2493 3.07275 18.816 3.50605L15.5705 6.75156C15.3568 6.96432 15.1873 7.21721 15.0716 7.49569C14.9559 7.77417 14.8964 8.07277 14.8965 8.37432C14.8965 8.98887 15.1372 9.5666 15.5705 9.9999L17.9438 12.3731C17.3882 13.5976 16.6159 14.7115 15.664 15.6611C14.7144 16.6154 13.6006 17.3905 12.376 17.9494L10.0027 15.5762C9.78998 15.3625 9.53709 15.1929 9.25861 15.0773C8.98013 14.9616 8.68153 14.9021 8.37998 14.9021C7.76543 14.9021 7.1877 15.1429 6.7544 15.5762L3.50606 18.8188C3.2921 19.032 3.1224 19.2854 3.00673 19.5643C2.89105 19.8433 2.83168 20.1424 2.83203 20.4444C2.83203 21.059 3.07276 21.6367 3.50606 22.07L6.51651 25.0805C7.20752 25.7743 8.16192 26.168 9.1418 26.168C9.34854 26.168 9.54678 26.151 9.74219 26.117C13.5598 25.4883 17.3462 23.4577 20.402 20.4048C23.4549 17.3547 25.4826 13.5711 26.1198 9.74219C26.3124 8.57256 25.9244 7.36895 25.0805 6.51934Z" fill="#86BEB1"/>
</svg>
