<svg width="29" height="25" viewBox="0 0 29 25" fill="none" xmlns="http://www.w3.org/2000/svg">
<path d="M0.499144 11.9998L7.0435 14.4567L9.59467 22.7207C9.70559 23.2791 10.3711 23.3908 10.8148 23.0558L14.4752 20.0405C14.8079 19.7055 15.3626 19.7055 15.8062 20.0405L22.3506 24.8426C22.7942 25.1776 23.4598 24.9543 23.5707 24.3959L28.4512 0.943833C28.5621 0.385451 28.0075 -0.172926 27.4529 0.050427L0.499144 10.548C-0.166381 10.7714 -0.166381 11.7764 0.499144 11.9998ZM9.26192 13.2282L22.1287 5.29922C22.3506 5.18754 22.5724 5.52257 22.3506 5.63425L11.8131 15.5735C11.4803 15.9085 11.1476 16.3552 11.1476 16.9136L10.8148 19.5938C10.8148 19.9288 10.2602 20.0405 10.1493 19.5938L8.81821 14.68C8.48544 14.1217 8.70731 13.4516 9.26192 13.2282Z" fill="#86BEB1"/>
</svg>
