<svg width="26" height="29" viewBox="0 0 26 29" fill="none" xmlns="http://www.w3.org/2000/svg">
<path d="M19.8698 0.671903C15.2103 -0.223968 10.3717 -0.223968 5.71228 0.671903C3.65138 1.11984 1.05285 3.62828 0.60483 5.59919C-0.20161 9.45144 -0.20161 13.3933 0.60483 17.2455C1.14246 19.2164 3.74098 21.7249 5.71228 22.1728C5.80188 22.1728 5.89148 22.2624 5.89148 22.352V27.996C5.89148 28.2647 6.24991 28.4439 6.42912 28.1751L9.11725 25.3979C9.11725 25.3979 11.2677 23.1583 11.6262 22.7999C11.6262 22.7999 11.7158 22.7103 11.8054 22.7103C14.4935 22.7999 17.2712 22.5312 19.9594 22.0832C22.0203 21.6353 24.6188 19.1268 25.0668 17.1559C25.8733 13.3037 25.8733 9.36185 25.0668 5.50961C24.5292 3.62828 21.9307 1.11984 19.8698 0.671903ZM19.9594 17.5143C19.5114 18.4102 18.9737 19.1269 18.0777 19.5748C17.8089 19.6644 17.5401 19.754 17.2712 19.8435C16.9128 19.754 16.644 19.6644 16.3752 19.5748C13.5079 18.4102 10.8197 16.7976 8.66923 14.4683C7.50437 13.1245 6.51872 11.6015 5.71228 9.98896C5.35386 9.18268 4.99544 8.46598 4.72663 7.6597C4.45782 6.943 4.90584 6.22631 5.35386 5.68878C5.80188 5.15126 6.33951 4.79291 6.96674 4.52415C7.41476 4.25539 7.86279 4.43456 8.2212 4.79291C8.93804 5.68878 9.65487 6.58465 10.1925 7.57011C10.5509 8.19722 10.4613 8.91392 9.83408 9.36185C9.65487 9.45144 9.56527 9.54103 9.38606 9.7202C9.29645 9.80979 9.11724 9.89937 9.02764 10.0785C8.84843 10.3473 8.84843 10.6161 8.93804 10.8848C9.65487 12.9453 10.9989 14.5579 13.0598 15.4538C13.4183 15.6329 13.6871 15.7225 14.1351 15.7225C14.7623 15.633 15.0311 14.9163 15.4792 14.5579C15.9272 14.1996 16.4648 14.1996 17.0024 14.4683C17.4505 14.7371 17.8985 15.0954 18.4361 15.4538C18.8841 15.8121 19.3321 16.0809 19.7802 16.4392C20.049 16.6184 20.1386 17.0663 19.9594 17.5143ZM16.196 10.7952C16.0168 10.7952 16.1064 10.7952 16.196 10.7952C15.8376 10.7952 15.748 10.6161 15.6584 10.3473C15.6584 10.1681 15.6584 9.89938 15.5688 9.7202C15.4792 9.36185 15.3 9.0035 14.9415 8.73474C14.7623 8.64516 14.5831 8.55557 14.4039 8.46598C14.1351 8.37639 13.9559 8.3764 13.6871 8.3764C13.4183 8.28681 13.3287 8.10763 13.3287 7.83887C13.3287 7.6597 13.5975 7.48052 13.7767 7.48052C15.2103 7.57011 16.2856 8.37639 16.4648 10.0785C16.4648 10.1681 16.4648 10.3473 16.4648 10.4369C16.4648 10.6161 16.3752 10.7952 16.196 10.7952ZM15.2999 6.85341C14.8519 6.67424 14.4039 6.49507 13.8663 6.40548C13.6871 6.40548 13.4183 6.31589 13.239 6.31589C12.9702 6.31589 12.791 6.13672 12.8806 5.86796C12.8806 5.59919 13.0598 5.42002 13.3287 5.50961C14.2247 5.59919 15.0311 5.77837 15.8376 6.13672C17.4505 6.943 18.3465 8.28681 18.6153 10.0785C18.6153 10.1681 18.6153 10.2577 18.6153 10.3473C18.6153 10.5265 18.6153 10.7057 18.6153 10.9744C18.6153 11.064 18.6153 11.1536 18.6153 11.2432C18.5257 11.6015 17.8985 11.6911 17.8089 11.2432C17.8089 11.1536 17.7193 10.9744 17.7193 10.8848C17.7193 10.0786 17.5401 9.27227 17.1816 8.55557C16.644 7.74928 16.0168 7.21176 15.2999 6.85341ZM20.1386 12.2286C19.8698 12.2286 19.6906 11.9599 19.6906 11.6911C19.6906 11.1536 19.601 10.6161 19.5114 10.0785C19.1529 7.21176 16.8232 4.8825 14.0455 4.43456C13.5975 4.34497 13.1494 4.34497 12.791 4.25539C12.5222 4.25539 12.1638 4.25539 12.0742 3.89704C11.9846 3.62828 12.2534 3.35952 12.5222 3.35952C12.6118 3.35952 12.7014 3.35952 12.7014 3.35952C16.3752 3.4491 12.8806 3.35952 12.7014 3.35952C16.4648 3.4491 19.601 5.95754 20.2282 9.7202C20.3178 10.3473 20.4074 10.9744 20.4074 11.6911C20.5866 11.9599 20.4074 12.2286 20.1386 12.2286Z" fill="#86BEB1"/>
</svg>
