<svg width="25" height="25" viewBox="0 0 25 25" fill="none" xmlns="http://www.w3.org/2000/svg">
<path d="M21.1971 3.64583C18.8611 1.30208 15.7464 0 12.4587 0C5.62372 0 0.0865174 5.55555 0.0865174 12.4132C0.0865174 14.5833 0.69215 16.7535 1.73037 18.5764L0 25L6.57543 23.2639C8.39232 24.2188 10.3822 24.7396 12.4587 24.7396C19.2937 24.7396 24.8309 19.184 24.8309 12.3264C24.7444 9.11458 23.5331 5.98958 21.1971 3.64583ZM18.4285 16.8403C18.1689 17.5347 16.9577 18.2292 16.352 18.316C15.8329 18.4028 15.1408 18.4028 14.4486 18.2292C14.016 18.0556 13.4104 17.8819 12.7183 17.5347C9.60358 16.2326 7.61365 13.1076 7.44061 12.8472C7.26758 12.6736 6.14283 11.1979 6.14283 9.63542C6.14283 8.07292 6.9215 7.37847 7.18105 7.03125C7.44061 6.68403 7.78669 6.68403 8.04624 6.68403C8.21928 6.68403 8.47883 6.68403 8.65187 6.68403C8.82491 6.68403 9.08447 6.59722 9.34402 7.20486C9.60358 7.8125 10.2092 9.375 10.2957 9.46181C10.3822 9.63542 10.3822 9.80903 10.2957 9.98264C10.2092 10.1562 10.1227 10.3299 9.94965 10.5035C9.77661 10.6771 9.60358 10.9375 9.51706 11.0243C9.34402 11.1979 9.17099 11.3715 9.34402 11.6319C9.51706 11.9792 10.1227 12.934 11.0744 13.8021C12.2857 14.8437 13.2374 15.191 13.5834 15.3646C13.9295 15.5382 14.1026 15.4514 14.2756 15.2778C14.4486 15.1042 15.0543 14.4097 15.2273 14.0625C15.4003 13.7153 15.6599 13.8021 15.9194 13.8889C16.179 13.9757 17.7363 14.7569 17.9959 14.9306C18.342 15.1042 18.515 15.191 18.6015 15.2778C18.688 15.5382 18.688 16.1458 18.4285 16.8403Z" fill="#86BEB1"/>
</svg>
