<svg width="42" height="42" viewBox="0 0 42 42" fill="none" xmlns="http://www.w3.org/2000/svg">
<circle cx="21" cy="21" r="21" fill="#86BEB1"/>
<path fill-rule="evenodd" clip-rule="evenodd" d="M15.8103 21.2679L12.6001 11.9L33.6001 21.2679L12.6001 30.5L15.8103 21.2679ZM27.9823 20.046H19.0205L15.9441 15.0227L27.9823 20.046Z" fill="white"/>
<path d="M12.6001 11.9L12.1271 12.0621C12.0626 11.8739 12.1158 11.6653 12.2627 11.531C12.4096 11.3967 12.6221 11.3623 12.8038 11.4434L12.6001 11.9ZM15.8103 21.2679L16.2833 21.1058C16.3195 21.2116 16.3193 21.3265 16.2826 21.4321L15.8103 21.2679ZM33.6001 21.2679L33.8038 20.8113C33.9845 20.8919 34.1006 21.0714 34.1001 21.2693C34.0996 21.4671 33.9824 21.646 33.8013 21.7256L33.6001 21.2679ZM12.6001 30.5L12.8013 30.9577C12.6192 31.0378 12.407 31.0023 12.2609 30.8674C12.1148 30.7324 12.0625 30.5237 12.1278 30.3358L12.6001 30.5ZM19.0205 20.046V20.546C18.8465 20.546 18.685 20.4555 18.5941 20.3071L19.0205 20.046ZM27.9823 20.046L28.1749 19.5846C28.3948 19.6763 28.5194 19.9106 28.4726 20.1442C28.4258 20.3779 28.2206 20.546 27.9823 20.546V20.046ZM15.9441 15.0227L15.5177 15.2838C15.4045 15.0989 15.4233 14.8621 15.5644 14.6974C15.7054 14.5327 15.9366 14.4777 16.1367 14.5612L15.9441 15.0227ZM13.0731 11.7379L16.2833 21.1058L15.3373 21.43L12.1271 12.0621L13.0731 11.7379ZM33.3964 21.7245L12.3964 12.3567L12.8038 11.4434L33.8038 20.8113L33.3964 21.7245ZM12.3989 30.0423L33.3989 20.8102L33.8013 21.7256L12.8013 30.9577L12.3989 30.0423ZM16.2826 21.4321L13.0724 30.6642L12.1278 30.3358L15.338 21.1037L16.2826 21.4321ZM19.0205 19.546H27.9823V20.546H19.0205V19.546ZM16.3705 14.7615L19.4469 19.7849L18.5941 20.3071L15.5177 15.2838L16.3705 14.7615ZM27.7898 20.5075L15.7516 15.4841L16.1367 14.5612L28.1749 19.5846L27.7898 20.5075Z" fill="white"/>
</svg>
