<svg width="251" height="50" viewBox="0 0 251 50" fill="none" xmlns="http://www.w3.org/2000/svg">
<path d="M119.5 4V47" stroke="#ECB833" stroke-width="2" stroke-linecap="round" stroke-dasharray="4 4"/>
<path d="M19.6016 5.72H27.9416V8.08H22.4816V11.22H24.2416C24.9616 11.22 25.6016 11.2933 26.1616 11.44C26.7349 11.5867 27.2149 11.8267 27.6016 12.16C27.9882 12.4933 28.2816 12.94 28.4816 13.5C28.6949 14.0467 28.8016 14.72 28.8016 15.52C28.8016 16.3333 28.6949 17.0267 28.4816 17.6C28.2682 18.16 27.9549 18.62 27.5416 18.98C27.1282 19.34 26.6282 19.6 26.0416 19.76C25.4549 19.92 24.7816 20 24.0216 20H19.6016V5.72ZM23.5016 17.8C23.9149 17.8 24.2682 17.7667 24.5616 17.7C24.8549 17.6333 25.0949 17.5133 25.2816 17.34C25.4816 17.1667 25.6282 16.9333 25.7216 16.64C25.8149 16.3467 25.8616 15.9667 25.8616 15.5C25.8616 14.6867 25.6682 14.14 25.2816 13.86C24.9082 13.5667 24.3416 13.42 23.5816 13.42H22.4816V17.8H23.5016ZM35.1577 20.22C34.0777 20.22 33.2177 20.0467 32.5777 19.7C31.9377 19.34 31.4443 18.84 31.0977 18.2C30.7643 17.5467 30.5443 16.7733 30.4377 15.88C30.3443 14.9733 30.2977 13.9667 30.2977 12.86C30.2977 11.78 30.3443 10.7867 30.4377 9.88C30.5443 8.96 30.7643 8.17333 31.0977 7.52C31.4443 6.86667 31.9377 6.36 32.5777 6C33.2177 5.62667 34.0777 5.44 35.1577 5.44C36.2377 5.44 37.0977 5.62667 37.7377 6C38.3777 6.36 38.8643 6.86667 39.1977 7.52C39.5443 8.17333 39.7643 8.96 39.8577 9.88C39.9643 10.7867 40.0177 11.78 40.0177 12.86C40.0177 13.9667 39.9643 14.9733 39.8577 15.88C39.7643 16.7733 39.5443 17.5467 39.1977 18.2C38.8643 18.84 38.3777 19.34 37.7377 19.7C37.0977 20.0467 36.2377 20.22 35.1577 20.22ZM35.1577 18.16C35.5843 18.16 35.9243 18.0667 36.1777 17.88C36.4443 17.68 36.6443 17.3733 36.7777 16.96C36.9243 16.5333 37.0177 15.9867 37.0577 15.32C37.111 14.64 37.1377 13.82 37.1377 12.86C37.1377 11.9 37.111 11.0867 37.0577 10.42C37.0177 9.75333 36.9243 9.20667 36.7777 8.78C36.6443 8.35333 36.4443 8.04667 36.1777 7.86C35.9243 7.66 35.5843 7.56 35.1577 7.56C34.731 7.56 34.3843 7.66 34.1177 7.86C33.8643 8.04667 33.6643 8.35333 33.5177 8.78C33.3843 9.20667 33.291 9.75333 33.2377 10.42C33.1977 11.0867 33.1777 11.9 33.1777 12.86C33.1777 13.82 33.1977 14.64 33.2377 15.32C33.291 15.9867 33.3843 16.5333 33.5177 16.96C33.6643 17.3733 33.8643 17.68 34.1177 17.88C34.3843 18.0667 34.731 18.16 35.1577 18.16ZM41.7109 5.72H46.7509C47.4843 5.72 48.0976 5.84667 48.5909 6.1C49.0976 6.34 49.5043 6.66 49.8109 7.06C50.1176 7.46 50.3376 7.92 50.4709 8.44C50.6043 8.94667 50.6709 9.46667 50.6709 10C50.6709 10.7467 50.5576 11.3933 50.3309 11.94C50.1176 12.4733 49.8109 12.9133 49.4109 13.26C49.0243 13.6067 48.5509 13.8667 47.9909 14.04C47.4309 14.2133 46.8109 14.3 46.1309 14.3H44.5909V20H41.7109V5.72ZM45.8709 12.18C46.4443 12.18 46.9043 12.0067 47.2509 11.66C47.6109 11.3133 47.7909 10.7733 47.7909 10.04C47.7909 9.32 47.6376 8.77333 47.3309 8.4C47.0243 8.02667 46.5109 7.84 45.7909 7.84H44.5909V12.18H45.8709ZM52.082 5.72H54.822V14.88L58.322 5.72H61.422V20H58.682V10.86L55.182 20H52.082V5.72ZM67.9897 20.22C66.9097 20.22 66.0497 20.0467 65.4097 19.7C64.7697 19.34 64.2764 18.84 63.9297 18.2C63.5964 17.5467 63.3764 16.7733 63.2697 15.88C63.1764 14.9733 63.1297 13.9667 63.1297 12.86C63.1297 11.78 63.1764 10.7867 63.2697 9.88C63.3764 8.96 63.5964 8.17333 63.9297 7.52C64.2764 6.86667 64.7697 6.36 65.4097 6C66.0497 5.62667 66.9097 5.44 67.9897 5.44C69.0164 5.44 69.823 5.60667 70.4097 5.94C71.0097 6.27333 71.4564 6.7 71.7497 7.22C72.043 7.72667 72.223 8.28 72.2897 8.88C72.3697 9.46667 72.4097 10.02 72.4097 10.54H69.5297C69.5297 9.5 69.403 8.74667 69.1497 8.28C68.9097 7.8 68.463 7.56 67.8097 7.56C67.4497 7.56 67.1497 7.66 66.9097 7.86C66.683 8.04667 66.503 8.36 66.3697 8.8C66.2364 9.22667 66.143 9.79333 66.0897 10.5C66.0364 11.1933 66.0097 12.0467 66.0097 13.06C66.0097 14.14 66.043 15.0133 66.1097 15.68C66.1897 16.3467 66.303 16.8667 66.4497 17.24C66.6097 17.6 66.803 17.8467 67.0297 17.98C67.2697 18.1 67.543 18.16 67.8497 18.16C68.103 18.16 68.3364 18.12 68.5497 18.04C68.7764 17.9467 68.9697 17.7733 69.1297 17.52C69.2897 17.2533 69.4164 16.8867 69.5097 16.42C69.603 15.94 69.6497 15.3133 69.6497 14.54H72.5297C72.5297 15.3267 72.4697 16.0667 72.3497 16.76C72.2297 17.44 72.003 18.04 71.6697 18.56C71.3497 19.0667 70.8897 19.4733 70.2897 19.78C69.703 20.0733 68.9364 20.22 67.9897 20.22ZM74.4119 20.12C74.2252 20.12 73.9985 20.1067 73.7319 20.08C73.4785 20.0533 73.2919 20.0267 73.1719 20V17.54C73.2385 17.5533 73.3119 17.5667 73.3919 17.58C73.4852 17.58 73.5452 17.58 73.5719 17.58C73.7985 17.58 74.0052 17.5667 74.1919 17.54C74.3919 17.5 74.5652 17.3733 74.7119 17.16C74.8719 16.9333 75.0052 16.58 75.1119 16.1C75.2319 15.62 75.3252 14.94 75.3919 14.06C75.4719 13.18 75.5319 12.0667 75.5719 10.72C75.6119 9.36 75.6319 7.69333 75.6319 5.72H83.7719V20H80.8919V8.08H78.3519C78.3519 9.76 78.3252 11.2267 78.2719 12.48C78.2319 13.7333 78.1585 14.8067 78.0519 15.7C77.9452 16.5933 77.7919 17.3267 77.5919 17.9C77.4052 18.4733 77.1652 18.9267 76.8719 19.26C76.5785 19.58 76.2252 19.8067 75.8119 19.94C75.4119 20.06 74.9452 20.12 74.4119 20.12ZM88.5534 5.72H92.1134L95.8934 20H92.8934L92.2334 16.98H88.4334L87.7734 20H84.7734L88.5534 5.72ZM91.7334 14.62L90.3534 8.2H90.3134L88.9334 14.62H91.7334ZM96.8867 5.72H101.707C102.293 5.72 102.833 5.78 103.327 5.9C103.833 6.02 104.267 6.22 104.627 6.5C104.987 6.78 105.267 7.15333 105.467 7.62C105.667 8.08667 105.767 8.66 105.767 9.34C105.767 10.1133 105.587 10.78 105.227 11.34C104.867 11.8867 104.327 12.26 103.607 12.46V12.5C104.407 12.6067 105.04 12.9467 105.507 13.52C105.973 14.0933 106.207 14.86 106.207 15.82C106.207 16.38 106.133 16.9133 105.987 17.42C105.84 17.9267 105.587 18.3733 105.227 18.76C104.88 19.1333 104.42 19.4333 103.847 19.66C103.287 19.8867 102.587 20 101.747 20H96.8867V5.72ZM100.887 17.88C101.58 17.88 102.14 17.7267 102.567 17.42C102.993 17.1133 103.207 16.5467 103.207 15.72C103.207 15.3067 103.147 14.9667 103.027 14.7C102.92 14.42 102.767 14.2 102.567 14.04C102.38 13.8667 102.153 13.7467 101.887 13.68C101.62 13.6133 101.327 13.58 101.007 13.58H99.7667V17.88H100.887ZM100.587 11.58C101.387 11.58 101.967 11.44 102.327 11.16C102.7 10.8667 102.887 10.38 102.887 9.7C102.887 9.02 102.72 8.54 102.387 8.26C102.053 7.98 101.527 7.84 100.807 7.84H99.7667V11.58H100.587ZM20.0313 30.72H22.9113V36.44H22.9513L26.5913 30.72H29.7113L25.8313 36.84L30.1513 45H26.9113L23.9713 39.14L22.9113 40.76V45H20.0313V30.72ZM33.5534 30.72H37.1134L40.8934 45H37.8934L37.2334 41.98H33.4334L32.7734 45H29.7734L33.5534 30.72ZM36.7334 39.62L35.3534 33.2H35.3134L33.9334 39.62H36.7334ZM45.8867 45.22C45.0467 45.22 44.3334 45.1333 43.7467 44.96C43.1734 44.7867 42.7067 44.52 42.3467 44.16C41.9867 43.7867 41.7267 43.32 41.5667 42.76C41.4067 42.2 41.3267 41.54 41.3267 40.78V40.6H44.2067V40.74C44.2067 41.06 44.2267 41.3667 44.2667 41.66C44.3067 41.94 44.3934 42.1933 44.5267 42.42C44.6601 42.6467 44.8401 42.8267 45.0667 42.96C45.2934 43.0933 45.6001 43.16 45.9867 43.16C46.5867 43.16 47.0334 42.9867 47.3267 42.64C47.6334 42.28 47.7867 41.7133 47.7867 40.94C47.7867 40.1267 47.6267 39.5533 47.3067 39.22C46.9867 38.8733 46.4667 38.7 45.7467 38.7C45.6667 38.7 45.5267 38.7 45.3267 38.7C45.1267 38.7 44.9601 38.7067 44.8267 38.72V36.48C44.8934 36.4933 44.9801 36.5 45.0867 36.5C45.2067 36.5 45.3001 36.5 45.3667 36.5C46.1534 36.5 46.7134 36.3267 47.0467 35.98C47.3801 35.6333 47.5467 35.06 47.5467 34.26C47.5467 33.6467 47.4134 33.2067 47.1467 32.94C46.8801 32.6733 46.5134 32.54 46.0467 32.54C45.6067 32.54 45.2334 32.64 44.9267 32.84C44.6201 33.0267 44.4334 33.34 44.3667 33.78C44.3401 33.9267 44.3201 34.0533 44.3067 34.16C44.3067 34.2667 44.3067 34.4133 44.3067 34.6H41.4867V34.48C41.4867 33.1333 41.8801 32.1267 42.6667 31.46C43.4534 30.78 44.5934 30.44 46.0867 30.44C47.4734 30.44 48.5334 30.7667 49.2667 31.42C50.0134 32.06 50.3867 32.9867 50.3867 34.2C50.3867 34.5467 50.3401 34.8933 50.2467 35.24C50.1667 35.5867 50.0334 35.9067 49.8467 36.2C49.6734 36.4933 49.4534 36.7533 49.1867 36.98C48.9201 37.1933 48.6134 37.3467 48.2667 37.44C49.0534 37.6133 49.6667 37.9733 50.1067 38.52C50.5467 39.0533 50.7667 39.8 50.7667 40.76C50.7667 42.28 50.3401 43.4067 49.4867 44.14C48.6467 44.86 47.4467 45.22 45.8867 45.22ZM55.3503 30.72H58.9103L62.6903 45H59.6903L59.0303 41.98H55.2303L54.5703 45H51.5703L55.3503 30.72ZM58.5303 39.62L57.1503 33.2H57.1103L55.7303 39.62H58.5303ZM63.6836 30.72H66.5636V36.18H69.9236V30.72H72.8036V45H69.9236V38.66H66.5636V45H63.6836V30.72ZM74.7969 30.72H77.6769V36.44H77.7169L81.3569 30.72H84.4769L80.5969 36.84L84.9169 45H81.6769L78.7369 39.14L77.6769 40.76V45H74.7969V30.72ZM85.5391 30.72H88.2791V39.88L91.7791 30.72H94.8791V45H92.1391V35.86L88.6391 45H85.5391V30.72ZM96.8867 30.72H99.7667V36.18H103.127V30.72H106.007V45H103.127V38.66H99.7667V45H96.8867V30.72Z" fill="#292325"/>
<path d="M136.004 15.1172C135.352 15.1172 134.795 15.0059 134.334 14.7832V13.9219C134.568 14.0117 134.822 14.0918 135.096 14.1621C135.369 14.2324 135.684 14.2676 136.039 14.2676C136.719 14.2676 137.242 14.0859 137.609 13.7227C137.98 13.3594 138.186 12.8164 138.225 12.0938H134.973V11.2676H138.213C138.15 10.5957 137.953 10.1035 137.621 9.79102C137.293 9.47852 136.814 9.32227 136.186 9.32227C135.783 9.32227 135.287 9.42773 134.697 9.63867L134.422 8.81836C134.637 8.7168 134.904 8.63281 135.225 8.56641C135.545 8.49609 135.861 8.46094 136.174 8.46094C137.174 8.46094 137.934 8.74805 138.453 9.32227C138.973 9.89258 139.232 10.7168 139.232 11.7949C139.232 12.8457 138.949 13.6621 138.383 14.2441C137.82 14.8262 137.027 15.1172 136.004 15.1172ZM144.682 8.57812H145.748L142.977 11.6777L145.977 15H144.84L141.91 11.748V15H140.938V8.57812H141.91V11.7012L144.682 8.57812ZM149.738 15.1172C148.809 15.1172 148.088 14.832 147.576 14.2617C147.068 13.6875 146.814 12.877 146.814 11.8301C146.814 10.7559 147.072 9.92578 147.588 9.33984C148.107 8.75391 148.846 8.46094 149.803 8.46094C150.111 8.46094 150.42 8.49414 150.729 8.56055C151.037 8.62695 151.279 8.70508 151.455 8.79492L151.156 9.62109C150.941 9.53516 150.707 9.46484 150.453 9.41016C150.199 9.35156 149.975 9.32227 149.779 9.32227C148.475 9.32227 147.822 10.1543 147.822 11.8184C147.822 12.6074 147.98 13.2129 148.297 13.6348C148.617 14.0566 149.09 14.2676 149.715 14.2676C150.25 14.2676 150.799 14.1523 151.361 13.9219V14.7832C150.932 15.0059 150.391 15.1172 149.738 15.1172ZM153.863 15H152.891V8.57812H158.281V15H157.297V9.42188H153.863V15ZM163.057 15.1172C162.107 15.1172 161.357 14.8281 160.807 14.25C160.26 13.6719 159.986 12.8691 159.986 11.8418C159.986 10.8066 160.24 9.98438 160.748 9.375C161.26 8.76562 161.945 8.46094 162.805 8.46094C163.609 8.46094 164.246 8.72656 164.715 9.25781C165.184 9.78516 165.418 10.4824 165.418 11.3496V11.9648H160.994C161.014 12.7188 161.203 13.291 161.562 13.6816C161.926 14.0723 162.436 14.2676 163.092 14.2676C163.783 14.2676 164.467 14.123 165.143 13.834V14.7012C164.799 14.8496 164.473 14.9551 164.164 15.0176C163.859 15.084 163.49 15.1172 163.057 15.1172ZM162.793 9.27539C162.277 9.27539 161.865 9.44336 161.557 9.7793C161.252 10.1152 161.072 10.5801 161.018 11.1738H164.375C164.375 10.5605 164.238 10.0918 163.965 9.76758C163.691 9.43945 163.301 9.27539 162.793 9.27539ZM170.07 15.1172C169.652 15.1172 169.27 15.041 168.922 14.8887C168.578 14.7324 168.289 14.4941 168.055 14.1738H167.984C168.031 14.5488 168.055 14.9043 168.055 15.2402V17.8828H167.082V8.57812H167.873L168.008 9.45703H168.055C168.305 9.10547 168.596 8.85156 168.928 8.69531C169.26 8.53906 169.641 8.46094 170.07 8.46094C170.922 8.46094 171.578 8.75195 172.039 9.33398C172.504 9.91602 172.736 10.7324 172.736 11.7832C172.736 12.8379 172.5 13.6582 172.027 14.2441C171.559 14.8262 170.906 15.1172 170.07 15.1172ZM169.93 9.28711C169.273 9.28711 168.799 9.46875 168.506 9.83203C168.213 10.1953 168.062 10.7734 168.055 11.5664V11.7832C168.055 12.6855 168.205 13.332 168.506 13.7227C168.807 14.1094 169.289 14.3027 169.953 14.3027C170.508 14.3027 170.941 14.0781 171.254 13.6289C171.57 13.1797 171.729 12.5605 171.729 11.7715C171.729 10.9707 171.57 10.3574 171.254 9.93164C170.941 9.50195 170.5 9.28711 169.93 9.28711ZM178.771 9.41016H176.686V15H175.713V9.41016H173.65V8.57812H178.771V9.41016ZM136.004 31H135.031V24.5781H140.422V31H139.438V25.4219H136.004V31ZM148.027 27.7832C148.027 28.8301 147.764 29.6484 147.236 30.2383C146.709 30.8242 145.98 31.1172 145.051 31.1172C144.477 31.1172 143.967 30.9824 143.521 30.7129C143.076 30.4434 142.732 30.0566 142.49 29.5527C142.248 29.0488 142.127 28.459 142.127 27.7832C142.127 26.7363 142.389 25.9219 142.912 25.3398C143.436 24.7539 144.162 24.4609 145.092 24.4609C145.99 24.4609 146.703 24.7598 147.23 25.3574C147.762 25.9551 148.027 26.7637 148.027 27.7832ZM143.135 27.7832C143.135 28.6035 143.299 29.2285 143.627 29.6582C143.955 30.0879 144.438 30.3027 145.074 30.3027C145.711 30.3027 146.193 30.0898 146.521 29.6641C146.854 29.2344 147.02 28.6074 147.02 27.7832C147.02 26.9668 146.854 26.3477 146.521 25.9258C146.193 25.5 145.707 25.2871 145.062 25.2871C144.426 25.2871 143.945 25.4961 143.621 25.9141C143.297 26.332 143.135 26.9551 143.135 27.7832ZM136.004 47H135.031V40.5781H140.422V47H139.438V41.4219H136.004V47ZM145.473 47.1172C145.055 47.1172 144.672 47.041 144.324 46.8887C143.98 46.7324 143.691 46.4941 143.457 46.1738H143.387C143.434 46.5488 143.457 46.9043 143.457 47.2402V49.8828H142.484V40.5781H143.275L143.41 41.457H143.457C143.707 41.1055 143.998 40.8516 144.33 40.6953C144.662 40.5391 145.043 40.4609 145.473 40.4609C146.324 40.4609 146.98 40.752 147.441 41.334C147.906 41.916 148.139 42.7324 148.139 43.7832C148.139 44.8379 147.902 45.6582 147.43 46.2441C146.961 46.8262 146.309 47.1172 145.473 47.1172ZM145.332 41.2871C144.676 41.2871 144.201 41.4688 143.908 41.832C143.615 42.1953 143.465 42.7734 143.457 43.5664V43.7832C143.457 44.6855 143.607 45.332 143.908 45.7227C144.209 46.1094 144.691 46.3027 145.355 46.3027C145.91 46.3027 146.344 46.0781 146.656 45.6289C146.973 45.1797 147.131 44.5605 147.131 43.7715C147.131 42.9707 146.973 42.3574 146.656 41.9316C146.344 41.502 145.902 41.2871 145.332 41.2871ZM150.758 40.5781V44.6504L150.717 45.7168L150.699 46.0508L154.174 40.5781H155.387V47H154.479V43.0742L154.496 42.3008L154.525 41.5391L151.057 47H149.844V40.5781H150.758ZM161.193 40.5781H162.26L159.488 43.6777L162.488 47H161.352L158.422 43.748V47H157.449V40.5781H158.422V43.7012L161.193 40.5781ZM168.471 47H167.486V41.4102H165.559C165.453 42.8008 165.307 43.9043 165.119 44.7207C164.932 45.5371 164.688 46.1348 164.387 46.5137C164.09 46.8926 163.711 47.082 163.25 47.082C163.039 47.082 162.871 47.0586 162.746 47.0117V46.291C162.832 46.3145 162.93 46.3262 163.039 46.3262C163.488 46.3262 163.846 45.8516 164.111 44.9023C164.377 43.9531 164.578 42.5117 164.715 40.5781H168.471V47ZM178.807 43.7832C178.807 44.834 178.555 45.6523 178.051 46.2383C177.551 46.8242 176.863 47.1172 175.988 47.1172C175.156 47.1172 174.496 46.8574 174.008 46.3379C173.52 45.8145 173.248 45.0703 173.193 44.1055H171.512V47H170.539V40.5781H171.512V43.2676H173.205C173.283 42.377 173.568 41.6875 174.061 41.1992C174.553 40.707 175.203 40.4609 176.012 40.4609C176.871 40.4609 177.551 40.7598 178.051 41.3574C178.555 41.9512 178.807 42.7598 178.807 43.7832ZM174.201 43.7832C174.201 44.6074 174.344 45.2344 174.629 45.6641C174.914 46.0898 175.371 46.3027 176 46.3027C176.617 46.3027 177.07 46.0957 177.359 45.6816C177.652 45.2637 177.799 44.6309 177.799 43.7832C177.799 42.9629 177.656 42.3418 177.371 41.9199C177.086 41.498 176.629 41.2871 176 41.2871C175.371 41.2871 174.914 41.498 174.629 41.9199C174.344 42.3418 174.201 42.9629 174.201 43.7832ZM181.367 40.5781V42.9219C181.367 43.6719 181.795 44.0469 182.65 44.0469C183.006 44.0469 183.346 43.9922 183.67 43.8828C183.994 43.7734 184.361 43.5879 184.771 43.3262V40.5781H185.744V47H184.771V44.0938C184.361 44.375 183.98 44.5742 183.629 44.6914C183.281 44.8047 182.887 44.8613 182.445 44.8613C181.805 44.8613 181.303 44.6934 180.939 44.3574C180.576 44.0215 180.395 43.5664 180.395 42.9922V40.5781H181.367ZM190.525 47.1172C189.576 47.1172 188.826 46.8281 188.275 46.25C187.729 45.6719 187.455 44.8691 187.455 43.8418C187.455 42.8066 187.709 41.9844 188.217 41.375C188.729 40.7656 189.414 40.4609 190.273 40.4609C191.078 40.4609 191.715 40.7266 192.184 41.2578C192.652 41.7852 192.887 42.4824 192.887 43.3496V43.9648H188.463C188.482 44.7188 188.672 45.291 189.031 45.6816C189.395 46.0723 189.904 46.2676 190.561 46.2676C191.252 46.2676 191.936 46.123 192.611 45.834V46.7012C192.268 46.8496 191.941 46.9551 191.633 47.0176C191.328 47.084 190.959 47.1172 190.525 47.1172ZM190.262 41.2754C189.746 41.2754 189.334 41.4434 189.025 41.7793C188.721 42.1152 188.541 42.5801 188.486 43.1738H191.844C191.844 42.5605 191.707 42.0918 191.434 41.7676C191.16 41.4395 190.77 41.2754 190.262 41.2754ZM195.523 40.5781V43.2676H199.121V40.5781H200.094V47H199.121V44.1055H195.523V47H194.551V40.5781H195.523ZM203.07 40.5781V44.6504L203.029 45.7168L203.012 46.0508L206.486 40.5781H207.699V47H206.791V43.0742L206.809 42.3008L206.838 41.5391L203.369 47H202.156V40.5781H203.07ZM210.084 47H208.947L210.793 44.2871C210.297 44.1777 209.916 43.9668 209.65 43.6543C209.389 43.3379 209.258 42.9414 209.258 42.4648C209.258 41.8789 209.455 41.418 209.85 41.082C210.244 40.7461 210.795 40.5781 211.502 40.5781H214.361V47H213.389V44.4336H211.766L210.084 47ZM210.207 42.4766C210.207 43.2188 210.746 43.5898 211.824 43.5898H213.389V41.4219H211.625C210.68 41.4219 210.207 41.7734 210.207 42.4766ZM219.764 46.0625L219.945 45.5176L220.197 44.8262L221.938 40.5898H223.174V47H222.312V41.6973L222.195 42.0371L221.855 42.9336L220.197 47H219.383L217.725 42.9219C217.518 42.3984 217.375 41.9902 217.297 41.6973V47H216.43V40.5898H217.619L219.301 44.6621C219.469 45.0918 219.623 45.5586 219.764 46.0625Z" fill="#292325"/>
</svg>
