<?xml version="1.0" encoding="utf-8"?><svg viewBox="0 0 30 29" xmlns="http://www.w3.org/2000/svg" xmlns:xlink="http://www.w3.org/1999/xlink"><style>:root>svg{display:none}:root>svg:target{display:block}</style><svg viewBox="0 0 21 21" id="artix" xmlns="http://www.w3.org/2000/svg"><g clip-path="url(#aa)"><path d="M3.898 17.328a2.2 2.2 0 00-.626-.485 2.185 2.185 0 00-.9-.247h-.139A2.18 2.18 0 001 16.96a2.25 2.25 0 00-.812.956c-.06.137-.106.28-.138.427a2.054 2.054 0 000 .905c.032.147.079.29.138.428.177.386.458.714.812.95.363.244.793.372 1.232.366a2.266 2.266 0 00.958-.208l.065-.036a.671.671 0 01.105-.051l.097-.037.05.076a.512.512 0 00.448.255.528.528 0 00.367-.15.479.479 0 00.167-.36v-1.687a2.117 2.117 0 00-.16-.793 2.335 2.335 0 00-.43-.673zm-.572 1.93a1.16 1.16 0 01-.635.62 1.186 1.186 0 01-.463.09c-.153 0-.304-.032-.443-.094a1.31 1.31 0 01-.375-.25 1.26 1.26 0 01-.265-.37 1.101 1.101 0 01-.006-.91 1.23 1.23 0 01.637-.634 1.134 1.134 0 01.907 0 1.245 1.245 0 01.641.633 1.143 1.143 0 01.001.92v-.004zm4.25-2.651c-.293.01-.58.074-.85.186-.26.107-.498.26-.702.454a2.192 2.192 0 00-.469.672 1.92 1.92 0 00-.178.82v1.756a.487.487 0 00.311.474.48.48 0 00.19.032.526.526 0 00.494-.281.46.46 0 00.045-.185v-1.732a1.137 1.137 0 01.338-.84 1.165 1.165 0 01.83-.339.554.554 0 00.376-.154.469.469 0 00.15-.35.566.566 0 00-.336-.478.495.495 0 00-.2-.035zm5.254 3.216a.438.438 0 00-.118-.15.53.53 0 00-.374-.138h-.01a.554.554 0 00-.375.137.98.98 0 01-.35.216c-.152.05-.31.074-.47.07-.164 0-.326-.032-.476-.097a1.155 1.155 0 01-.38-.264 1.19 1.19 0 01-.291-.839v-1.132h1.175a.486.486 0 00.356-.161.506.506 0 00.016-.726.464.464 0 00-.372-.137H9.986v-.988a.43.43 0 00-.154-.346.612.612 0 00-.403-.138.593.593 0 00-.397.138.43.43 0 00-.154.346v3.136a2.16 2.16 0 00.69 1.63c.216.198.47.353.744.455.29.107.597.162.906.16a2.11 2.11 0 00.83-.163 2.35 2.35 0 00.71-.473.39.39 0 00.098-.156.53.53 0 00.027-.194.484.484 0 00-.054-.186zm7.178.297l-1.336-1.326 1.334-1.326a.498.498 0 00.139-.362.477.477 0 00-.139-.354.524.524 0 00-.363-.157h-.006a.47.47 0 00-.339.147l-1.364 1.328-1.336-1.315a.61.61 0 00-.365-.159.461.461 0 00-.364.156.621.621 0 00-.155.363.4.4 0 00.138.332l1.365 1.346-1.365 1.346a.46.46 0 00-.138.358c.004.134.06.26.156.353a.451.451 0 00.368.138.606.606 0 00.37-.138l1.33-1.32 1.335 1.296a.508.508 0 00.38.168.49.49 0 00.478-.307.474.474 0 00.035-.202.507.507 0 00-.158-.364zm-5.418-3.379a.575.575 0 00-.108-.073.46.46 0 00-.252-.07.46.46 0 00-.252.07.575.575 0 00-.107.073.432.432 0 00-.158.332v3.438a.46.46 0 00.167.355.499.499 0 00.345.124h.018c.126.004.25-.04.344-.124a.46.46 0 00.167-.355v-3.438a.43.43 0 00-.164-.332zm.027-1.448a.462.462 0 00-.35-.151.52.52 0 00-.363.138.468.468 0 00-.162.343.5.5 0 00.138.388.569.569 0 00.385.146.464.464 0 00.347-.152.507.507 0 000-.716l.005.004z"/></g><g clip-path="url(#ab)"><path d="M10.079 5.58c-1.512 0-2.887 1.371-2.887 3.064.002.622.188 1.229.53 1.734.735-.461 1.53-.787 2.362-.787.832 0 1.626.326 2.361.787a3.113 3.113 0 00.531-1.734c-.005-1.693-1.381-3.065-2.897-3.065z"/><path d="M10.077 0c-3.711 0-6.72 8.32-6.72 12.203 0 3.014 1.813-.223 4.359-1.825a3.087 3.087 0 01-.53-1.813c.017-.65.234-1.275.62-1.781-.124.31-.187.644-.186.98 0 .69.258 1.353.72 1.84a2.39 2.39 0 001.737.763 2.39 2.39 0 001.738-.762c.46-.488.72-1.15.72-1.84 0-.337-.063-.67-.186-.981a3.07 3.07 0 01.618 1.781c.017.65-.17 1.287-.528 1.813 2.547 1.601 4.358 4.839 4.358 1.825C16.797 8.321 13.788 0 10.077 0z"/></g><defs><clipPath id="aa"><path d="M0 15.12h20.16V21H0z"/></clipPath><clipPath id="ab"><path d="M3.36 0H16.8v13.44H3.36z"/></clipPath></defs></svg><svg viewBox="0 0 25 25" id="fb" xmlns="http://www.w3.org/2000/svg"><path d="M25 12.577C25 5.63 19.404 0 12.502 0 5.596.002 0 5.63 0 12.578 0 18.854 4.571 24.056 10.546 25v-8.788H7.374v-3.634h3.175V9.805c0-3.151 1.867-4.892 4.721-4.892 1.369 0 2.798.246 2.798.246v3.093h-1.576c-1.552 0-2.036.97-2.036 1.965v2.36h3.465l-.553 3.633h-2.914v8.788C20.43 24.055 25 18.852 25 12.577z"/></svg><svg viewBox="0 0 25 25" id="inst" xmlns="http://www.w3.org/2000/svg"><path d="M12.497 8.332A4.177 4.177 0 008.328 12.5a4.177 4.177 0 004.169 4.168 4.177 4.177 0 004.168-4.168 4.177 4.177 0 00-4.168-4.168zM24.999 12.5c0-1.726.016-3.437-.081-5.16-.097-2.001-.554-3.777-2.017-5.24C21.434.632 19.66.18 17.66.081c-1.726-.096-3.437-.08-5.16-.08-1.726 0-3.437-.016-5.16.081C5.34.18 3.563.636 2.1 2.1.632 3.566.18 5.34.081 7.34c-.096 1.726-.08 3.437-.08 5.16 0 1.723-.016 3.437.081 5.16.098 2 .554 3.777 2.018 5.24 1.467 1.467 3.24 1.92 5.241 2.018 1.726.097 3.437.081 5.16.081 1.726 0 3.437.016 5.16-.081 2.001-.097 3.777-.554 5.24-2.017 1.467-1.467 1.92-3.24 2.018-5.241.1-1.723.081-3.434.081-5.16zm-12.502 6.414A6.405 6.405 0 016.083 12.5a6.405 6.405 0 016.414-6.414A6.405 6.405 0 0118.91 12.5a6.405 6.405 0 01-6.414 6.414zM19.173 7.32a1.496 1.496 0 01-1.498-1.497c0-.83.67-1.498 1.498-1.498a1.496 1.496 0 011.385 2.071 1.497 1.497 0 01-1.385.925z"/></svg><svg viewBox="0 0 25 25" id="subtitle-check" xmlns="http://www.w3.org/2000/svg"><path d="M4.297 13.672l5.469 5.469L20.703 7.42"/></svg><svg viewBox="0 0 29 25" id="tg" xmlns="http://www.w3.org/2000/svg"><path d="M.5 12l6.543 2.457 2.552 8.264c.11.558.776.67 1.22.335l3.66-3.015c.333-.335.888-.335 1.331 0l6.545 4.802c.443.335 1.109.111 1.22-.447L28.45.944c.111-.559-.444-1.117-.998-.894L.499 10.548c-.665.223-.665 1.228 0 1.452zm8.762 1.228L22.129 5.3c.222-.111.443.224.222.335l-10.538 9.94c-.333.335-.665.781-.665 1.34l-.333 2.68c0 .335-.555.447-.666 0L8.82 14.68c-.334-.558-.112-1.228.443-1.452z"/></svg><svg viewBox="0 0 26 29" id="vb" xmlns="http://www.w3.org/2000/svg"><path d="M19.87.672a37.625 37.625 0 00-14.158 0c-2.06.448-4.66 2.956-5.107 4.927a28.334 28.334 0 000 11.646c.537 1.971 3.136 4.48 5.107 4.928.09 0 .18.09.18.179v5.644c0 .269.358.448.537.18l2.688-2.778s2.15-2.24 2.51-2.598c0 0 .089-.09.178-.09 2.688.09 5.466-.179 8.154-.627 2.061-.448 4.66-2.956 5.108-4.927a28.332 28.332 0 000-11.646C24.529 3.628 21.93 1.12 19.87.672zm.09 16.842c-.449.896-.986 1.613-1.882 2.06l-.807.27a11.32 11.32 0 01-.896-.27c-2.867-1.164-5.555-2.776-7.706-5.106-1.165-1.344-2.15-2.867-2.957-4.479-.358-.806-.717-1.523-.985-2.33-.27-.716.179-1.433.627-1.97.448-.538.986-.896 1.613-1.165.448-.269.896-.09 1.254.269.717.896 1.434 1.792 1.972 2.777.358.627.268 1.344-.359 1.792-.18.09-.269.179-.448.358-.09.09-.269.18-.358.358-.18.27-.18.538-.09.807.717 2.06 2.06 3.673 4.122 4.569.358.179.627.268 1.075.268.627-.089.896-.806 1.344-1.164.448-.358.986-.358 1.523-.09.449.27.896.627 1.434.986.448.358.896.627 1.344.985.269.18.359.627.18 1.075zm-3.764-6.719c-.18 0-.09 0 0 0-.358 0-.448-.179-.538-.448 0-.179 0-.448-.09-.627-.089-.358-.268-.716-.627-.985l-.537-.269c-.269-.09-.448-.09-.717-.09-.269-.09-.358-.268-.358-.537 0-.18.268-.358.448-.358 1.433.09 2.509.895 2.688 2.598v.358c0 .18-.09.358-.269.358zM15.3 6.853c-.448-.179-.896-.358-1.434-.448-.179 0-.448-.09-.627-.09-.269 0-.448-.178-.358-.447 0-.269.179-.448.448-.358.896.09 1.702.268 2.509.627 1.613.806 2.508 2.15 2.777 3.942v1.165c-.09.357-.716.447-.806 0 0-.09-.09-.27-.09-.36 0-.805-.179-1.612-.537-2.328-.538-.807-1.165-1.344-1.882-1.703zm4.839 5.376c-.27 0-.448-.27-.448-.538 0-.537-.09-1.075-.18-1.613-.358-2.866-2.688-5.195-5.465-5.643-.448-.09-.897-.09-1.255-.18-.269 0-.627 0-.717-.358-.09-.269.18-.537.448-.537h.18c3.673.09.179 0 0 0 3.763.09 6.899 2.598 7.526 6.36.09.627.18 1.254.18 1.971.179.269 0 .538-.27.538z"/></svg><svg viewBox="0 0 25 25" id="vk" xmlns="http://www.w3.org/2000/svg"><path d="M16.341 0h-7.67C1.666 0 0 1.666 0 8.659v7.67C0 23.332 1.654 25 8.659 25h7.67C23.332 25 25 23.346 25 16.341v-7.67C25 1.666 23.346 0 16.341 0zm3.841 17.837H18.36c-.69 0-.898-.558-2.135-1.796-1.08-1.041-1.537-1.171-1.81-1.171-.378 0-.482.104-.482.625v1.64c0 .444-.143.704-1.302.704a7.114 7.114 0 01-5.56-3.334 14.533 14.533 0 01-2.878-6.041c0-.274.104-.522.625-.522H6.64c.469 0 .638.21.821.69.885 2.606 2.395 4.87 3.008 4.87.235 0 .337-.103.337-.69V10.13c-.077-1.224-.727-1.328-.727-1.77a.45.45 0 01.467-.417h2.865c.392 0 .521.194.521.663v3.62c0 .391.17.521.287.521.235 0 .416-.13.846-.56a14.997 14.997 0 002.24-3.724.785.785 0 01.794-.52h1.823c.547 0 .663.273.547.663a22.757 22.757 0 01-2.448 4.207c-.196.3-.275.456 0 .807.181.274.82.808 1.25 1.315a8.109 8.109 0 011.537 2.135c.156.508-.105.769-.625.769v-.002z"/></svg><svg viewBox="0 0 25 25" id="wa" xmlns="http://www.w3.org/2000/svg"><path d="M21.197 3.646C18.861 1.302 15.747 0 12.46 0 5.624 0 .087 5.556.087 12.413c0 2.17.605 4.34 1.643 6.163L0 25l6.575-1.736c1.817.955 3.807 1.476 5.884 1.476 6.835 0 12.372-5.556 12.372-12.414-.087-3.211-1.298-6.336-3.634-8.68zM18.43 16.84c-.26.695-1.471 1.39-2.077 1.476a4.82 4.82 0 01-1.903-.087c-.433-.173-1.039-.347-1.73-.694-3.115-1.302-5.105-4.427-5.278-4.688-.173-.173-1.298-1.65-1.298-3.212 0-1.562.779-2.257 1.038-2.604.26-.347.606-.347.865-.347h.606c.173 0 .432-.087.692.52.26.609.865 2.171.952 2.258a.555.555 0 010 .52c-.087.174-.173.348-.346.522-.173.173-.346.434-.433.52-.173.174-.346.348-.173.608.173.347.779 1.302 1.73 2.17 1.212 1.042 2.163 1.389 2.51 1.563.346.173.519.086.692-.087.173-.174.778-.868.951-1.216.173-.347.433-.26.692-.173.26.087 1.817.868 2.077 1.042.346.173.519.26.606.347.086.26.086.868-.174 1.562z"/></svg><svg viewBox="0 0 30 25" id="yt" xmlns="http://www.w3.org/2000/svg"><path d="M15 0C.258 0 0 1.419 0 12.5S.258 25 15 25s15-1.419 15-12.5S29.742 0 15 0zm4.808 13.042l-6.736 3.403c-.589.295-1.072-.036-1.072-.74v-6.41c0-.702.483-1.035 1.072-.74l6.736 3.403c.589.299.589.785 0 1.084z"/></svg></svg>