<svg width="71" height="71" viewBox="0 0 71 71" fill="none" xmlns="http://www.w3.org/2000/svg">
<ellipse cx="23.5" cy="64.9697" rx="23.5" ry="5.5" fill="#39453B"/>
<path d="M21.078 0V55.404H18V61.56H30.312V55.404H27.234V40.014H67.248C68.0643 40.014 68.8472 39.6897 69.4245 39.1125C70.0017 38.5352 70.326 37.7523 70.326 36.936V6.156C70.326 5.33966 70.0017 4.55676 69.4245 3.97953C68.8472 3.40229 68.0643 3.078 67.248 3.078H27.234V0H21.078ZM33.39 9.234V15.39H39.546V9.234H45.702V15.39H51.858V9.234H58.014V15.39H64.17V21.546H58.014V27.702H64.17V33.858H58.014V27.702H51.858V33.858H45.702V27.702H39.546V33.858H33.39V27.702H27.234V21.546H33.39V15.39H27.234V9.234H33.39Z" fill="#D6B27E"/>
<path d="M33.3901 21.5456H39.5461V27.7016H33.3901V21.5456ZM45.7021 21.5456H51.8581V27.7016H45.7021V21.5456ZM39.5461 15.3896H45.7021V21.5456H39.5461V15.3896ZM51.8581 15.3896H58.0141V21.5456H51.8581V15.3896Z" fill="#D6B27E"/>
</svg>
