<svg width="51" height="79" viewBox="0 0 51 79" fill="none" xmlns="http://www.w3.org/2000/svg">
<path fill-rule="evenodd" clip-rule="evenodd" d="M7.46853 7.46799C12.2502 2.68632 18.7355 0 25.4979 0C32.2602 0 38.7455 2.68632 43.5272 7.46799C48.3089 12.2497 50.9952 18.735 50.9952 25.4973C50.9952 32.2596 48.3089 38.745 43.5272 43.5266L25.4979 61.556L7.46853 43.5266C5.10073 41.1591 3.22248 38.3483 1.94102 35.2548C0.65956 32.1613 0 28.8457 0 25.4973C0 22.1489 0.65956 18.8333 1.94102 15.7398C3.22248 12.6463 5.10073 9.83555 7.46853 7.46799ZM25.4979 32.7819C27.4298 32.7819 29.2827 32.0144 30.6488 30.6483C32.015 29.2822 32.7824 27.4293 32.7824 25.4973C32.7824 23.5653 32.015 21.7125 30.6488 20.3463C29.2827 18.9802 27.4298 18.2127 25.4979 18.2127C23.5659 18.2127 21.713 18.9802 20.3469 20.3463C18.9808 21.7125 18.2133 23.5653 18.2133 25.4973C18.2133 27.4293 18.9808 29.2822 20.3469 30.6483C21.713 32.0144 23.5659 32.7819 25.4979 32.7819Z" fill="#86BEB1"/>
<ellipse cx="25.5" cy="72.9697" rx="23.5" ry="5.5" fill="#39453B"/>
</svg>
